<svg width="141" height="25" viewBox="0 0 141 25" fill="none" xmlns="http://www.w3.org/2000/svg">
<path d="M132.754 13.8933L126.772 19.9638L130.56 23.8043L140.329 13.8933C141.223 12.9818 141.223 11.5217 140.329 10.6103L138.197 8.38027L130.631 0.699219L126.843 4.53974L132.834 10.6103C133.648 11.5217 133.648 12.9907 132.754 13.8933Z" fill="#F60716"/>
<path d="M124.692 13.9462L118.365 20.3619L122.365 24.4236L134.364 12.2472L130.435 8.11466L122.436 0L118.436 4.06175L124.763 10.4774C125.639 11.4331 125.639 12.9817 124.692 13.9462Z" fill="#DFDFDF"/>
<path d="M107.206 7.59151H107.091V7.70655V8.52067C106.206 7.6446 105.091 7.20215 103.764 7.20215C102.056 7.20215 100.649 7.75079 99.5425 8.85694C98.339 10.0604 97.7373 11.6267 97.7373 13.5381C97.7373 15.2106 98.2948 16.6442 99.4098 17.83C100.578 19.0688 101.985 19.6883 103.631 19.6883C105.117 19.6883 106.277 19.2193 107.091 18.2636V19.1927V19.3078H107.206H111.321H111.436V19.1927V7.70655V7.59151H111.321H107.206ZM102.941 15.2283C102.436 14.7505 102.18 14.1576 102.18 13.4319C102.18 12.7417 102.436 12.1488 102.967 11.6356C103.463 11.1577 104.029 10.9188 104.684 10.9188C105.356 10.9188 105.94 11.1577 106.454 11.6356C106.958 12.1311 107.215 12.724 107.215 13.4319C107.215 14.1222 106.967 14.7062 106.48 15.2018C105.967 15.715 105.383 15.9628 104.71 15.9628C104.064 15.9628 103.472 15.7239 102.941 15.2283Z" fill="#DFDFDF"/>
<path d="M103.764 7.20297C105.101 7.20297 106.207 7.64543 107.092 8.5215V7.70737V7.59234H107.207H111.322H111.437V7.70737V19.1936V19.3086H111.322H107.207H107.092V19.1936V18.2644C106.286 19.2201 105.127 19.6891 103.632 19.6891C101.986 19.6891 100.579 19.0697 99.4106 17.8308C98.2956 16.645 97.7381 15.2114 97.7381 13.539C97.7381 11.6275 98.3399 10.0612 99.5434 8.85776C100.649 7.75162 102.057 7.20297 103.764 7.20297ZM104.711 15.9636C105.384 15.9636 105.968 15.7158 106.481 15.2026C106.977 14.707 107.216 14.123 107.216 13.4328C107.216 12.7248 106.959 12.1319 106.455 11.6364C105.941 11.1585 105.357 10.9196 104.685 10.9196C104.03 10.9196 103.464 11.1585 102.968 11.6364C102.437 12.1496 102.18 12.7425 102.18 13.4328C102.18 14.1584 102.437 14.7513 102.941 15.2291C103.472 15.7247 104.065 15.9636 104.711 15.9636ZM103.764 6.9375C101.986 6.9375 100.508 7.52154 99.3575 8.67193C98.1098 9.91966 97.4727 11.5568 97.4727 13.539C97.4727 15.238 98.039 16.7158 99.1451 17.937L99.2159 18.0166C100.437 19.3086 101.915 19.9634 103.632 19.9634C104.941 19.9634 106.012 19.6095 106.826 18.9104V19.1936V19.3086V19.5741H107.092H107.207H111.322H111.437H111.702V19.3086V19.1936V7.70737V7.59234V7.32686H111.437H111.322H107.207H107.092H106.826V7.59234V7.70737V7.93745C105.977 7.27377 104.95 6.9375 103.764 6.9375ZM103.083 14.9902C102.658 14.5743 102.446 14.0611 102.446 13.4328C102.446 12.8133 102.676 12.2912 103.154 11.8311C103.596 11.3975 104.101 11.1939 104.685 11.1939C105.295 11.1939 105.809 11.4063 106.269 11.8311C106.729 12.2735 106.95 12.7956 106.95 13.4328C106.95 14.0522 106.738 14.5743 106.286 15.0168C105.826 15.4769 105.304 15.6981 104.702 15.6981C104.11 15.6981 103.587 15.4769 103.11 15.0345L103.083 14.9902Z" fill="#DFDFDF"/>
<path d="M91.4996 7.59213H91.3846V7.70717V19.1933V19.3084H91.4996H95.6144H95.7295V19.1933V7.70717V7.59213H95.6144H91.4996ZM91.827 4.64537C92.3137 5.11437 92.8889 5.34445 93.5526 5.34445C94.2163 5.34445 94.7826 5.10552 95.2516 4.64537C95.7383 4.15866 95.9773 3.58347 95.9773 2.91978C95.9773 2.2561 95.7295 1.68975 95.2516 1.22075C94.7826 0.734045 94.2163 0.495117 93.5526 0.495117C92.8889 0.495117 92.3137 0.742894 91.827 1.22075C91.358 1.68975 91.1279 2.2561 91.1279 2.91978C91.1279 3.59232 91.3669 4.16751 91.827 4.64537Z" fill="#DFDFDF"/>
<path d="M93.5622 0.495943C94.2259 0.495943 94.7922 0.74372 95.2612 1.22157C95.7479 1.69058 95.9869 2.25692 95.9869 2.92061C95.9869 3.58429 95.7391 4.15949 95.2612 4.64619C94.7922 5.1152 94.2259 5.34527 93.5622 5.34527C92.8985 5.34527 92.3233 5.10635 91.8366 4.64619C91.3676 4.15949 91.1375 3.58429 91.1375 2.92061C91.1375 2.25692 91.3765 1.69058 91.8366 1.22157C92.3145 0.74372 92.8897 0.495943 93.5622 0.495943ZM95.7302 7.59295V7.70799V19.1942V19.3092H95.6152H91.5004H91.3853V19.1942V7.70799V7.59295H91.5004H95.6152H95.7302ZM93.5622 0.230469C92.8277 0.230469 92.1817 0.504793 91.6508 1.03574C91.1375 1.54899 90.8721 2.18613 90.8721 2.92061C90.8721 3.54005 91.0579 4.09754 91.4296 4.5754L91.403 4.5931L91.6596 4.84087C92.1994 5.35412 92.8366 5.6196 93.5711 5.6196C94.3055 5.6196 94.9427 5.35412 95.4559 4.84087C95.9869 4.30992 96.2612 3.66393 96.2612 2.92946C96.2612 2.19498 95.9869 1.55784 95.4559 1.04459C94.9338 0.504793 94.2967 0.230469 93.5622 0.230469ZM95.9957 7.32748H95.7302H95.6152H91.5004H91.3853H91.1199V7.59295V7.70799V19.1942V19.3092V19.5747H91.3853H91.5004H95.6152H95.7302H95.9957V19.3092V19.1942V7.70799V7.59295V7.32748Z" fill="#DFDFDF"/>
<path d="M88.9602 0.459764V0.344727H88.8451H84.7303H84.6153V0.459764V8.53018C83.7038 7.64527 82.5977 7.20281 81.3145 7.20281C79.6597 7.20281 78.2793 7.72491 77.1731 8.77796C75.8989 9.98144 75.2617 11.53 75.2617 13.4061C75.2617 15.2821 75.89 16.8395 77.1466 18.0607C78.2616 19.1403 79.642 19.6889 81.2614 19.6889C82.6419 19.6889 83.7569 19.2111 84.6153 18.2465V19.1934V19.3084H84.7303H88.8451H88.9602V19.1934V0.459764ZM84.0135 11.6628C84.5091 12.1937 84.7569 12.7778 84.7569 13.4326C84.7569 14.1671 84.4825 14.7865 83.925 15.2998C83.4118 15.7422 82.8454 15.9635 82.226 15.9635C81.5535 15.9635 80.9783 15.7157 80.4827 15.229C79.9695 14.7157 79.7217 14.1494 79.7217 13.5122C79.7217 12.7689 79.9783 12.1495 80.4827 11.6362C80.9606 11.1584 81.5358 10.9283 82.226 10.9283C82.9605 10.9283 83.5534 11.1761 84.0135 11.6628Z" fill="#DFDFDF"/>
<path d="M88.9609 0.345552V0.46059V19.1942V19.3093H88.8459H84.7311H84.616V19.1942V18.2474C83.7577 19.2119 82.6338 19.6898 81.2622 19.6898C79.6428 19.6898 78.2623 19.15 77.1473 18.0615C75.8908 16.8403 75.2625 15.2829 75.2625 13.4069C75.2625 11.5309 75.8996 9.98226 77.1739 8.77878C78.28 7.72573 79.6605 7.20364 81.3153 7.20364C82.6073 7.20364 83.7046 7.64609 84.616 8.53101V0.46059V0.345552H84.7311H88.8459H88.9609ZM82.2179 15.9643C82.8373 15.9643 83.4037 15.7431 83.9169 15.3006C84.4744 14.7873 84.7488 14.1679 84.7488 13.4334C84.7488 12.7786 84.501 12.1945 84.0054 11.6636C83.5453 11.1769 82.9524 10.9291 82.209 10.9291C81.5188 10.9291 80.9436 11.1681 80.4658 11.6371C79.9525 12.1503 79.7047 12.7697 79.7047 13.5131C79.7047 14.1502 79.9525 14.7166 80.4658 15.2298C80.9702 15.7254 81.5454 15.9643 82.2179 15.9643ZM89.2264 0.0800781H88.9609H88.8459H84.7311H84.616H84.3505V0.345552V0.46059V7.94696C83.4833 7.27443 82.4657 6.93816 81.3153 6.93816C79.5986 6.93816 78.1385 7.49566 76.9969 8.5841C75.6784 9.83183 75.0059 11.4601 75.0059 13.4069C75.0059 15.3537 75.6695 16.9819 76.9704 18.2562C78.1384 19.3889 79.5809 19.9552 81.271 19.9552C82.4922 19.9552 83.5276 19.5924 84.3594 18.8757V19.1854V19.3004V19.5659H84.6249H84.7399H88.8548H88.9698H89.2353V19.3004V19.1854V0.46059V0.345552V0.0800781H89.2264ZM82.2179 15.6988C81.6162 15.6988 81.1029 15.4864 80.6604 15.0351C80.2003 14.575 79.9791 14.0706 79.9791 13.5042C79.9791 12.8317 80.2003 12.283 80.6604 11.8229C81.0852 11.3981 81.5985 11.1857 82.2179 11.1857C82.8816 11.1857 83.4037 11.3981 83.8196 11.8317V11.8406C84.2621 12.3184 84.4833 12.8405 84.4833 13.4246C84.4833 14.0883 84.2355 14.6369 83.74 15.0971C83.2798 15.5041 82.7754 15.6988 82.2179 15.6988Z" fill="#DFDFDF"/>
<path d="M71.3157 14.4068H73.4041C73.4572 14.0617 73.4926 13.7078 73.4926 13.3449C73.4926 9.75219 70.5812 6.84082 66.9885 6.84082C63.3957 6.84082 60.4844 9.75219 60.4844 13.3449C60.4844 16.9377 63.3957 19.8491 66.9885 19.8491C69.8822 19.8491 72.3245 17.9642 73.174 15.3537H69.0857C68.5548 15.9023 67.8115 16.2475 66.9885 16.2475C65.7585 16.2475 64.7054 15.4776 64.2807 14.398H69.6963H71.3157V14.4068ZM66.9796 10.4336C68.0415 10.4336 68.9619 10.9999 69.4751 11.8406H64.493C64.9974 10.9999 65.9266 10.4336 66.9796 10.4336Z" fill="#DFDFDF"/>
<path d="M38.7314 19.1926V19.3076H38.8465H42.9613H43.0764V19.1926V13.5114C43.0764 12.2991 43.3153 11.5027 43.7578 11.0779C44.0055 10.8301 44.3506 10.6974 44.8108 10.6974C45.3152 10.6974 45.6957 10.8478 45.9612 11.1222C46.1205 11.2903 46.2532 11.5646 46.3329 11.9628C46.4213 12.361 46.4656 12.8743 46.4656 13.5026V19.1837V19.2988H46.5806H50.6955H50.8105V19.1837V13.299C50.8105 12.3433 51.0583 11.6443 51.5185 11.1929C51.8193 10.9098 52.191 10.7593 52.6511 10.7593C53.0494 10.7593 53.3856 10.8832 53.6511 11.1133C53.8281 11.2814 53.9608 11.5558 54.0582 11.954C54.1555 12.3522 54.1997 12.8654 54.1997 13.4937V19.1749V19.2899H54.3148H58.4296H58.5447V19.1749V11.6973C58.5447 10.2726 58.1819 9.18419 57.4297 8.45856C56.6775 7.72408 55.5891 7.37012 54.1643 7.37012C53.2263 7.37012 52.4034 7.5648 51.722 7.95416C51.1114 8.29043 50.607 8.78598 50.2176 9.41427C49.8371 8.75058 49.3239 8.24618 48.6779 7.90107C48.023 7.5471 47.2709 7.37012 46.4125 7.37012C45.0674 7.37012 43.9524 7.83912 43.0852 8.77713V7.69754V7.5825H42.9702H38.8553H38.7403V7.69754V19.1926H38.7314Z" fill="#DFDFDF"/>
<path d="M54.1652 7.37979C55.5899 7.37979 56.6872 7.73376 57.4305 8.46824C58.1827 9.20271 58.5455 10.2912 58.5455 11.707V19.1845V19.2996H58.4305H54.3156H54.2006V19.1845V13.5034C54.2006 12.8751 54.1475 12.3619 54.059 11.9636C53.9616 11.5654 53.82 11.2911 53.6519 11.123C53.3864 10.8841 53.0502 10.769 52.652 10.769C52.2007 10.769 51.829 10.9106 51.5193 11.2026C51.0503 11.6539 50.8113 12.3442 50.8113 13.3087V19.1934V19.3084H50.6963H46.5815H46.4664V19.1934V13.5122C46.4664 12.884 46.4222 12.3707 46.3337 11.9725C46.2452 11.5743 46.1213 11.2911 45.962 11.1318C45.6965 10.8487 45.316 10.7071 44.8116 10.7071C44.3515 10.7071 44.0064 10.8398 43.7586 11.0876C43.3161 11.5123 43.0772 12.3176 43.0772 13.5211V19.2022V19.3173H42.9622H38.8473H38.7323V19.2022V7.70721V7.59217H38.8473H42.9622H43.0772V7.70721V8.78681C43.9444 7.8488 45.0594 7.37979 46.4045 7.37979C47.2628 7.37979 48.015 7.55678 48.6699 7.91074C49.3158 8.25586 49.8379 8.76026 50.2096 9.42394C50.599 8.79566 51.1034 8.3001 51.714 7.96384C52.4042 7.57447 53.2272 7.37979 54.1652 7.37979ZM54.1652 7.11432C53.1741 7.11432 52.3157 7.31785 51.5901 7.72491C51.0591 8.01693 50.599 8.42399 50.2185 8.92839C49.8379 8.38859 49.3601 7.96383 48.7937 7.66296C48.1124 7.2913 47.3071 7.10547 46.4045 7.10547C45.2098 7.10547 44.1833 7.45943 43.3427 8.15852V7.68951V7.57447V7.309H43.0772H42.9622H38.8473H38.7323H38.4668V7.57447V7.68951V19.1757V19.2907V19.5562H38.7323H38.8473H42.9622H43.0772H43.3427V19.2907V19.1757V13.4945C43.3427 12.3884 43.5462 11.6362 43.9444 11.2469C44.1479 11.0433 44.4311 10.946 44.8116 10.946C45.2364 10.946 45.555 11.061 45.7673 11.2911C45.8558 11.3885 45.9797 11.5831 46.0771 12.0079C46.1567 12.3884 46.2009 12.8928 46.2009 13.4945V19.1757V19.2907V19.5562H46.4664H46.5815H50.6963H50.8113H51.0768V19.2907V19.1757V13.291C51.0768 12.4238 51.2892 11.7867 51.7051 11.3796C51.9617 11.1407 52.2715 11.0256 52.652 11.0256C52.9882 11.0256 53.2537 11.123 53.4749 11.3088C53.6165 11.4415 53.7316 11.6893 53.8024 12.0167C53.8908 12.3973 53.9439 12.8928 53.9439 13.4945V19.1757V19.2907V19.5562H54.2094H54.3244H58.4305H58.5455H58.811V19.2907V19.1757V11.6982C58.811 10.1938 58.4128 9.03458 57.6163 8.26471C56.8288 7.51253 55.6695 7.11432 54.1652 7.11432Z" fill="#DFDFDF"/>
<path d="M34.7239 14.4068H36.8123C36.8654 14.0617 36.9008 13.7078 36.9008 13.3449C36.9008 9.75219 33.9894 6.84082 30.3967 6.84082C26.8039 6.84082 23.8926 9.75219 23.8926 13.3449C23.8926 16.9377 26.8039 19.8491 30.3967 19.8491C33.2904 19.8491 35.7327 17.9642 36.5822 15.3537H32.4939C31.963 15.9023 31.2197 16.2475 30.3967 16.2475C29.1667 16.2475 28.1136 15.4776 27.6889 14.398H33.1045H34.7239V14.4068ZM30.3878 10.4336C31.4497 10.4336 32.3701 10.9999 32.8833 11.8406H27.9012C28.4056 10.9999 29.3259 10.4336 30.3878 10.4336Z" fill="#DFDFDF"/>
<path d="M9.57324 19.1934V19.3084H9.68828H13.8031H13.9182V19.1934V13.0255C13.9182 12.2291 14.1394 11.6362 14.573 11.238C14.9093 10.9371 15.3694 10.7779 15.9889 10.7779C16.5464 10.7779 16.9534 10.9371 17.21 11.2292C17.3605 11.3973 17.4844 11.6539 17.5729 12.0167C17.6525 12.3796 17.6968 12.8309 17.6968 13.3884V19.1934V19.3084H17.8118H21.9266H22.0417V19.1934V11.8928C22.0417 11.1849 21.9709 10.5832 21.8293 10.0876C21.7054 9.56553 21.3957 9.06998 20.9267 8.60097C20.0772 7.75145 18.9179 7.33555 17.4578 7.33555C16.5198 7.33555 15.7057 7.53023 15.0332 7.91959C14.6261 8.14967 14.2544 8.45939 13.9182 8.83105V0.459764V0.344727H13.8031H9.68828H9.57324V0.459764V19.1934Z" fill="#DFDFDF"/>
<path d="M13.919 0.345552V0.46059V8.83188C14.2553 8.46021 14.6269 8.15049 15.034 7.92042C15.7065 7.53105 16.5118 7.33637 17.4587 7.33637C18.9188 7.33637 20.0868 7.75228 20.9275 8.6018C21.3965 9.0708 21.7062 9.5752 21.8301 10.0885C21.9717 10.584 22.0425 11.1857 22.0425 11.8937V19.1942V19.3093H21.9275H17.8126H17.6976V19.1942V13.3892C17.6976 12.8405 17.6533 12.3804 17.5737 12.0176C17.494 11.6548 17.3702 11.3981 17.2109 11.23C16.9454 10.938 16.5472 10.7787 15.9897 10.7787C15.3791 10.7787 14.9101 10.938 14.5738 11.2388C14.1402 11.6371 13.919 12.2299 13.919 13.0264V19.1942V19.3093H13.804H9.68911H9.57407V19.1942V0.46059V0.345552H9.68911H13.804H13.919ZM14.1845 0.0800781H13.919H13.804H9.68911H9.57407H9.30859V0.345552V0.46059V19.1942V19.3093V19.5747H9.57407H9.68911H13.804H13.919H14.1845V19.3093V19.1942V13.0264C14.1845 12.3096 14.3703 11.7875 14.7597 11.4335C15.0517 11.1769 15.4499 11.0442 15.9897 11.0442C16.4587 11.0442 16.795 11.1592 17.0162 11.407C17.1401 11.5486 17.2463 11.7698 17.3082 12.0795C17.3879 12.4246 17.4233 12.8671 17.4233 13.3892V19.1942V19.3093V19.5747H17.6887H17.8038H21.9186H22.0337H22.2991V19.3093V19.1942V11.8937C22.2991 11.1592 22.2283 10.5309 22.0779 10.0265C21.9363 9.46901 21.6177 8.92037 21.1045 8.41597C20.2107 7.5222 18.9807 7.0709 17.441 7.0709C16.4498 7.0709 15.5915 7.27443 14.8836 7.69034C14.6358 7.83192 14.3968 8.00006 14.1668 8.19474V0.46059V0.345552V0.0800781H14.1845Z" fill="#DFDFDF"/>
<path d="M8.14038 11.1838H8.25542V11.0688V7.70612V7.59108H8.14038H5.91925V3.92754V3.8125H5.80421H1.68936H1.57432V3.92754V7.59108H0.379688H0.264648V7.70612V11.0688V11.1838H0.379688H1.57432V19.1923V19.3073H1.68936H5.80421H5.91925V19.1923V11.1838H8.14038Z" fill="#DFDFDF"/>
<path d="M5.92007 3.81333V3.92837V7.59191H8.14121H8.25625V7.70695V11.0696V11.1847H8.14121H5.92007V19.1931V19.3082H5.80503H1.69019H1.57515V19.1931V11.1847H0.380513H0.265474V11.0696V7.70695V7.59191H0.380513H1.57515V3.92837V3.81333H1.69019H5.80503H5.92007ZM6.18555 3.54785H5.92007H5.80503H1.69019H1.57515H1.30967V3.81333V3.92837V7.32644H0.380513H0.265474H0V7.59191V7.70695V11.0696V11.1847V11.4501H0.265474H0.380513H1.30967V19.1931V19.3082V19.5736H1.57515H1.69019H5.80503H5.92007H6.18555V19.3082V19.1931V11.4501H8.14121H8.25625H8.52172V11.1847V11.0696V7.70695V7.59191V7.32644H8.25625H8.14121H6.18555V3.92837V3.81333V3.54785Z" fill="#DFDFDF"/>
</svg>
