<svg width="240" height="110" viewBox="0 0 240 110" fill="none" xmlns="http://www.w3.org/2000/svg">
<g clip-path="url(#clip0_1087_12912)">
<path d="M180.294 45.0332C179.94 45.0317 179.588 45.0996 179.261 45.233C178.933 45.3664 178.635 45.5626 178.383 45.8105C178.132 46.0584 177.932 46.353 177.796 46.6775C177.66 47.0019 177.589 47.3499 177.589 47.7014C177.589 48.4131 177.874 49.0955 178.381 49.5987C178.889 50.1019 179.577 50.3847 180.294 50.3849C180.649 50.3861 181.002 50.3175 181.331 50.183C181.659 50.0486 181.958 49.851 182.21 49.6016C182.461 49.3522 182.66 49.0559 182.796 48.7298C182.932 48.4037 183.001 48.0542 183 47.7014C183.024 46.245 181.823 45.0332 180.294 45.0332ZM180.294 49.9973C179.072 49.9973 178.094 48.9677 178.094 47.6918C178.094 46.4159 179.097 45.4353 180.294 45.4353C181.491 45.4353 182.495 46.4311 182.495 47.6918C182.495 48.9525 181.565 49.9973 180.294 49.9973Z" fill="#4A495B"/>
<path d="M181.333 48.3932C181.333 48.114 181.323 47.8243 180.942 47.7512V47.7408C181.333 47.5843 181.407 47.2898 181.407 47.1229C181.407 46.4312 180.784 46.3236 180.527 46.3236H179.34V49.0071H179.83V47.8877H180.221C180.794 47.8877 180.794 48.118 180.843 48.398C180.853 48.8586 180.843 48.9076 180.953 49.0159H181.466C181.333 48.8586 181.343 48.7952 181.333 48.398V48.3932ZM180.403 47.5546H179.83V46.7056H180.344C180.685 46.7056 180.883 46.814 180.883 47.0932C180.918 47.2898 180.824 47.5546 180.403 47.5546ZM170.196 58.6913H179.474L179.207 60.2706C178.727 63.1017 177.506 65.3237 175.537 66.9134C173.604 68.5023 171.24 69.3072 168.475 69.3072C165.711 69.3072 163.382 68.3458 161.844 66.4423C160.291 64.5485 159.752 62.243 160.202 59.4857C160.642 56.8272 161.893 54.6043 163.961 52.8188C166.003 51.0727 168.416 50.1948 171.18 50.1948C172.99 50.1948 174.573 50.5815 175.894 51.3471C177.228 52.0974 178.242 53.1815 178.93 54.5995L175.038 56.6161C174.193 55.0609 172.748 54.2857 170.73 54.2857C169.128 54.2857 167.744 54.7809 166.581 55.7767C165.429 56.7726 164.722 58.0975 164.44 59.7361C164.148 61.3988 164.391 62.7237 165.211 63.6955C166.018 64.6906 167.254 65.1865 168.905 65.1865C171.551 65.1865 173.361 64.2396 174.326 62.3554H169.563L170.201 58.6913H170.196ZM147.898 69.2871C145.218 69.2871 143.086 68.3257 141.498 66.3982C139.932 64.4554 139.392 62.1491 139.881 59.4753C140.361 56.7678 141.617 54.5353 143.665 52.7843C145.732 51.047 148.195 50.1843 151.068 50.1843C153.714 50.1843 155.816 51.1457 157.383 53.0732C158.975 54.9911 159.524 57.3119 159.05 59.9961C158.56 62.7285 157.289 64.9506 155.242 66.6871C153.209 68.4236 150.761 69.2871 147.898 69.2871ZM148.353 65.1961C149.906 65.1961 151.3 64.6857 152.526 63.6794C153.773 62.6603 154.545 61.3499 154.826 59.7457C155.109 58.156 154.826 56.8464 153.981 55.8112C153.174 54.7905 151.988 54.2946 150.43 54.2946C148.873 54.2946 147.518 54.8049 146.33 55.8112C145.153 56.8312 144.407 58.1416 144.115 59.7457C143.833 61.3595 144.09 62.6691 144.886 63.7043C145.682 64.7002 146.83 65.1961 148.348 65.1961H148.353ZM132.859 50.5567L130.214 64.8823H139.466L138.754 68.9244H125.269L128.621 50.5679H132.854V50.5575H132.858L132.859 50.5567ZM61.6422 59.6968C62.354 62.1491 64.2485 63.3761 67.3345 63.3761C69.9409 63.3761 71.3994 62.6106 71.7011 61.0706C71.8742 60.3195 71.6024 59.7112 70.8954 59.2602C70.2224 58.8085 68.8772 58.2644 66.8694 57.6072C64.1054 56.7429 61.9989 55.6539 60.589 54.3146C59.23 52.9312 58.7794 51.0373 59.23 48.6331C59.7089 46.0492 60.9797 44.1152 63.0473 42.8305C65.1391 41.5201 67.5619 40.8781 70.3065 40.8781C72.7648 40.8781 74.8858 41.4222 76.6711 42.5312C77.9815 43.3208 79.0105 44.3415 79.7668 45.6167L80.5636 41.4422H102.629L101.917 45.1705C102.55 44.2358 103.379 43.4488 104.349 42.8642C106.441 41.5538 108.864 40.911 111.609 40.911C114.067 40.911 116.187 41.4559 117.974 42.5641C118.473 42.869 118.943 43.2069 119.368 43.5848C114.879 30.9973 102.812 22 88.6139 22C70.5985 22 56 36.4822 56 54.354C56 56.9644 56.3163 59.5154 56.9052 61.9437L61.6422 59.6968Z" fill="#4A495B"/>
<path d="M115.848 49.9822C114.77 47.9416 113.158 46.9208 111.012 46.9208C108.979 46.9208 107.792 47.6126 107.451 48.996C107.278 49.7222 107.525 50.3305 108.173 50.8064C108.845 51.2822 110.141 51.8368 112.03 52.494C113.302 52.9064 114.187 53.2202 114.661 53.4313C116.155 54.001 117.307 54.643 118.098 55.3492C119.849 56.9637 120.486 59.063 120.008 61.6245C119.527 64.1017 118.222 66.03 116.105 67.3934C113.988 68.752 111.294 69.4341 108.04 69.4341C104.954 69.4341 102.436 68.8258 100.488 67.6237C98.5445 66.4216 97.2931 64.7589 96.7544 62.6444L102.946 59.7058C103.658 62.1589 105.552 63.3851 108.638 63.3851C111.244 63.3851 112.703 62.6203 113.005 61.0796C113.178 60.3285 112.905 59.7202 112.198 59.2692C111.526 58.8174 110.181 58.2734 108.173 57.6161C105.409 56.7527 103.302 55.6637 101.893 54.3244C100.533 52.941 100.082 51.0471 100.533 48.6429C100.606 48.2313 100.706 47.8437 100.824 47.4657H93.8463L89.7726 68.87H82.9777L87.0522 47.4657H79.6838L74.5456 49.9774C73.4681 47.9368 71.8559 46.916 69.709 46.916C67.677 46.916 66.4895 47.6077 66.149 48.9912C65.9759 49.7174 66.2226 50.3257 66.8705 50.8016C67.5436 51.2774 68.8394 51.8319 70.7283 52.4892C71.9991 52.9016 72.884 53.2154 73.3589 53.4264C74.8529 53.9954 76.004 54.6382 76.7968 55.3444C78.5465 56.9589 79.1847 59.0582 78.705 61.6197C78.2253 64.0969 76.9197 66.0252 74.8028 67.3886C72.6867 68.7472 69.9913 69.4293 66.7379 69.4293C63.6519 69.4293 61.1345 68.821 59.1858 67.6189C59.0285 67.521 58.8735 67.4196 58.7207 67.3148C63.7651 78.7259 75.2428 86.7024 88.6053 86.7024C106.621 86.7024 121.219 72.2211 121.219 54.3485C121.219 52.0671 120.977 49.8306 120.522 47.6816L115.834 49.9774L115.848 49.9822Z" fill="#4A495B"/>
</g>
<defs>
<clipPath id="clip0_1087_12912">
<rect width="127" height="65" fill="white" transform="translate(56 22)"/>
</clipPath>
</defs>
</svg>
