<svg width="150" height="34" viewBox="0 0 150 34" fill="none" xmlns="http://www.w3.org/2000/svg">
<path d="M136.842 18.8932L130.9 24.9637L134.662 28.8042L144.367 18.8932C145.255 17.9817 145.255 16.5216 144.367 15.6101L142.248 13.3801L134.733 5.6991L130.97 9.53962L136.921 15.6101C137.73 16.5216 137.73 17.9906 136.842 18.8932Z" fill="url(#paint0_linear_644_5973)"/>
<path d="M128.834 18.9462L122.548 25.3619L126.522 29.4236L138.442 17.2472L134.539 13.1147L126.592 5L122.619 9.06175L128.904 15.4774C129.774 16.4331 129.774 17.9817 128.834 18.9462Z" fill="#ECEBF2"/>
<path d="M111.463 12.5916H111.349V12.7067V13.5208C110.47 12.6447 109.362 12.2023 108.043 12.2023C106.347 12.2023 104.949 12.7509 103.85 13.8571C102.655 15.0605 102.057 16.6268 102.057 18.5383C102.057 20.2107 102.611 21.6443 103.719 22.8301C104.879 24.069 106.277 24.6884 107.912 24.6884C109.388 24.6884 110.54 24.2194 111.349 23.2637V24.1929V24.3079H111.463H115.551H115.665V24.1929V12.7067V12.5916H115.551H111.463ZM107.226 20.2284C106.725 19.7506 106.47 19.1577 106.47 18.4321C106.47 17.7418 106.725 17.1489 107.252 16.6357C107.745 16.1578 108.307 15.9189 108.958 15.9189C109.626 15.9189 110.206 16.1578 110.716 16.6357C111.217 17.1312 111.472 17.7241 111.472 18.4321C111.472 19.1223 111.226 19.7063 110.742 20.2019C110.232 20.7151 109.652 20.9629 108.984 20.9629C108.342 20.9629 107.753 20.724 107.226 20.2284Z" fill="#ECEBF2"/>
<path d="M108.044 12.2029C109.371 12.2029 110.47 12.6453 111.349 13.5214V12.7073V12.5922H111.464H115.551H115.665V12.7073V24.1934V24.3085H115.551H111.464H111.349V24.1934V23.2643C110.549 24.22 109.398 24.689 107.912 24.689C106.277 24.689 104.879 24.0695 103.719 22.8307C102.611 21.6449 102.058 20.2113 102.058 18.5388C102.058 16.6274 102.655 15.0611 103.851 13.8576C104.95 12.7515 106.347 12.2029 108.044 12.2029ZM108.985 20.9635C109.653 20.9635 110.233 20.7157 110.743 20.2025C111.235 19.7069 111.472 19.1229 111.472 18.4326C111.472 17.7247 111.217 17.1318 110.716 16.6363C110.206 16.1584 109.626 15.9195 108.958 15.9195C108.308 15.9195 107.745 16.1584 107.253 16.6363C106.725 17.1495 106.471 17.7424 106.471 18.4326C106.471 19.1583 106.725 19.7512 107.227 20.229C107.754 20.7246 108.343 20.9635 108.985 20.9635ZM108.044 11.9374C106.277 11.9374 104.809 12.5214 103.666 13.6718C102.427 14.9195 101.794 16.5566 101.794 18.5388C101.794 20.2379 102.357 21.7157 103.455 22.9369L103.526 23.0165C104.739 24.3085 106.207 24.9633 107.912 24.9633C109.213 24.9633 110.277 24.6093 111.086 23.9103V24.1934V24.3085V24.5739H111.349H111.464H115.551H115.665H115.929V24.3085V24.1934V12.7073V12.5922V12.3267H115.665H115.551H111.464H111.349H111.086V12.5922V12.7073V12.9373C110.242 12.2736 109.222 11.9374 108.044 11.9374ZM107.367 19.9901C106.945 19.5742 106.734 19.0609 106.734 18.4326C106.734 17.8132 106.963 17.2911 107.437 16.831C107.877 16.3973 108.378 16.1938 108.958 16.1938C109.565 16.1938 110.075 16.4062 110.532 16.831C110.989 17.2734 111.209 17.7955 111.209 18.4326C111.209 19.0521 110.998 19.5742 110.549 20.0166C110.092 20.4768 109.574 20.698 108.976 20.698C108.387 20.698 107.868 20.4768 107.394 20.0343L107.367 19.9901Z" fill="#ECEBF2"/>
<path d="M95.8604 12.5926H95.7461V12.7077V24.1938V24.3089H95.8604H99.948H100.062V24.1938V12.7077V12.5926H99.948H95.8604ZM96.1857 9.64585C96.6691 10.1149 97.2405 10.3449 97.8998 10.3449C98.5591 10.3449 99.1217 10.106 99.5876 9.64585C100.071 9.15915 100.308 8.58396 100.308 7.92027C100.308 7.25659 100.062 6.69024 99.5876 6.22124C99.1217 5.73453 98.5591 5.49561 97.8998 5.49561C97.2405 5.49561 96.6691 5.74338 96.1857 6.22124C95.7198 6.69024 95.4912 7.25659 95.4912 7.92027C95.4912 8.59281 95.7286 9.168 96.1857 9.64585Z" fill="#ECEBF2"/>
<path d="M97.9091 5.49619C98.5684 5.49619 99.131 5.74396 99.5969 6.22182C100.08 6.69082 100.318 7.25717 100.318 7.92085C100.318 8.58454 100.072 9.15973 99.5969 9.64643C99.131 10.1154 98.5684 10.3455 97.9091 10.3455C97.2499 10.3455 96.6785 10.1066 96.195 9.64643C95.7291 9.15973 95.5005 8.58454 95.5005 7.92085C95.5005 7.25717 95.7379 6.69082 96.195 6.22182C96.6697 5.74396 97.2411 5.49619 97.9091 5.49619ZM100.063 12.5932V12.7082V24.1944V24.3095H99.9485H95.8609H95.7467V24.1944V12.7082V12.5932H95.8609H99.9485H100.063ZM97.9091 5.23071C97.1795 5.23071 96.5378 5.50504 96.0104 6.03598C95.5005 6.54923 95.2368 7.18637 95.2368 7.92085C95.2368 8.54029 95.4214 9.09779 95.7906 9.57564L95.7642 9.59334L96.0192 9.84111C96.5554 10.3544 97.1883 10.6198 97.9179 10.6198C98.6475 10.6198 99.2805 10.3544 99.7903 9.84111C100.318 9.31017 100.59 8.66418 100.59 7.9297C100.59 7.19522 100.318 6.55808 99.7903 6.04483C99.2717 5.50504 98.6388 5.23071 97.9091 5.23071ZM100.327 12.3277H100.063H99.9485H95.8609H95.7467H95.483V12.5932V12.7082V24.1944V24.3095V24.5749H95.7467H95.8609H99.9485H100.063H100.327V24.3095V24.1944V12.7082V12.5932V12.3277Z" fill="#ECEBF2"/>
<path d="M93.3382 5.46001V5.34497H93.2239H89.1363H89.0221V5.46001V13.5304C88.1166 12.6455 87.0178 12.2031 85.7432 12.2031C84.0994 12.2031 82.728 12.7252 81.6292 13.7782C80.3634 14.9817 79.7305 16.5303 79.7305 18.4063C79.7305 20.2823 80.3546 21.8398 81.6029 23.0609C82.7105 24.1405 84.0818 24.6892 85.6905 24.6892C87.0618 24.6892 88.1694 24.2113 89.0221 23.2468V24.1936V24.3087H89.1363H93.2239H93.3382V24.1936V5.46001ZM88.4243 16.663C88.9166 17.194 89.1627 17.778 89.1627 18.4328C89.1627 19.1673 88.8902 19.7868 88.3364 20.3C87.8266 20.7425 87.264 20.9637 86.6486 20.9637C85.9805 20.9637 85.4092 20.7159 84.9169 20.2292C84.407 19.716 84.1609 19.1496 84.1609 18.5125C84.1609 17.7692 84.4158 17.1497 84.9169 16.6365C85.3916 16.1586 85.963 15.9285 86.6486 15.9285C87.3782 15.9285 87.9672 16.1763 88.4243 16.663Z" fill="#ECEBF2"/>
<path d="M93.3387 5.34555V5.46059V24.1942V24.3093H93.2245H89.1369H89.0226V24.1942V23.2474C88.1699 24.2119 87.0535 24.6898 85.691 24.6898C84.0823 24.6898 82.711 24.15 81.6034 23.0615C80.3551 21.8403 79.731 20.2829 79.731 18.4069C79.731 16.5309 80.3639 14.9823 81.6298 13.7788C82.7286 12.7257 84.0999 12.2036 85.7437 12.2036C87.0271 12.2036 88.1172 12.6461 89.0226 13.531V5.46059V5.34555H89.1369H93.2245H93.3387ZM86.6404 20.9643C87.2557 20.9643 87.8183 20.7431 88.3281 20.3006C88.8819 19.7873 89.1545 19.1679 89.1545 18.4334C89.1545 17.7786 88.9083 17.1945 88.416 16.6636C87.9589 16.1769 87.37 15.9291 86.6316 15.9291C85.9459 15.9291 85.3745 16.1681 84.8998 16.6371C84.39 17.1503 84.1438 17.7697 84.1438 18.5131C84.1438 19.1502 84.39 19.7166 84.8998 20.2298C85.4009 20.7254 85.9723 20.9643 86.6404 20.9643ZM93.6025 5.08008H93.3387H93.2245H89.1369H89.0226H88.7589V5.34555V5.46059V12.947C87.8974 12.2744 86.8865 11.9382 85.7437 11.9382C84.0384 11.9382 82.5879 12.4957 81.4539 13.5841C80.1442 14.8318 79.4761 16.4601 79.4761 18.4069C79.4761 20.3537 80.1354 21.9819 81.4276 23.2562C82.5879 24.3889 84.0208 24.9552 85.6998 24.9552C86.9129 24.9552 87.9414 24.5924 88.7677 23.8757V24.1854V24.3004V24.5659H89.0314H89.1457H93.2333H93.3475H93.6112V24.3004V24.1854V5.46059V5.34555V5.08008H93.6025ZM86.6404 20.6988C86.0426 20.6988 85.5327 20.4864 85.0932 20.0351C84.6361 19.575 84.4163 19.0706 84.4163 18.5042C84.4163 17.8317 84.6361 17.283 85.0932 16.8229C85.5152 16.3981 86.025 16.1857 86.6404 16.1857C87.2996 16.1857 87.8183 16.3981 88.2314 16.8317V16.8406C88.671 17.3184 88.8907 17.8405 88.8907 18.4246C88.8907 19.0883 88.6446 19.6369 88.1523 20.0971C87.6952 20.5041 87.1942 20.6988 86.6404 20.6988Z" fill="#ECEBF2"/>
<path d="M75.8099 19.407H77.8845C77.9372 19.0618 77.9724 18.7079 77.9724 18.3451C77.9724 14.7523 75.0803 11.8409 71.5113 11.8409C67.9424 11.8409 65.0503 14.7523 65.0503 18.3451C65.0503 21.9378 67.9424 24.8492 71.5113 24.8492C74.3858 24.8492 76.812 22.9643 77.6559 20.3538H73.5947C73.0673 20.9025 72.3289 21.2476 71.5113 21.2476C70.2895 21.2476 69.2434 20.4777 68.8214 19.3981H74.2012H75.8099V19.407ZM71.5025 15.4337C72.5574 15.4337 73.4716 16 73.9815 16.8407H69.0324C69.5335 16 70.4565 15.4337 71.5025 15.4337Z" fill="#ECEBF2"/>
<path d="M43.4419 24.1928V24.3079H43.5562H47.6438H47.758V24.1928V18.5117C47.758 17.2993 47.9954 16.5029 48.4349 16.0782C48.6811 15.8304 49.0239 15.6976 49.481 15.6976C49.982 15.6976 50.36 15.8481 50.6238 16.1224C50.782 16.2905 50.9138 16.5649 50.993 16.9631C51.0809 17.3613 51.1248 17.8745 51.1248 18.5028V24.184V24.299H51.2391H55.3267H55.441V24.184V18.2993C55.441 17.3436 55.6871 16.6445 56.1442 16.1932C56.4431 15.91 56.8123 15.7596 57.2694 15.7596C57.665 15.7596 57.999 15.8835 58.2627 16.1135C58.4385 16.2817 58.5704 16.556 58.6671 16.9542C58.7638 17.3524 58.8078 17.8657 58.8078 18.494V24.1751V24.2902H58.922H63.0096H63.1239V24.1751V16.6976C63.1239 15.2729 62.7635 14.1844 62.0163 13.4588C61.2691 12.7243 60.1879 12.3704 58.7726 12.3704C57.8408 12.3704 57.0233 12.565 56.3464 12.9544C55.7399 13.2907 55.2388 13.7862 54.852 14.4145C54.474 13.7508 53.9642 13.2464 53.3225 12.9013C52.672 12.5473 51.9248 12.3704 51.0721 12.3704C49.7359 12.3704 48.6283 12.8394 47.7668 13.7774V12.6978V12.5827H47.6526H43.565H43.4507V12.6978V24.1928H43.4419Z" fill="#ECEBF2"/>
<path d="M58.7731 12.3798C60.1884 12.3798 61.2784 12.7338 62.0168 13.4682C62.764 14.2027 63.1244 15.2912 63.1244 16.707V24.1845V24.2996H63.0102H58.9226H58.8083V24.1845V18.5034C58.8083 17.8751 58.7555 17.3619 58.6676 16.9636C58.5709 16.5654 58.4303 16.2911 58.2633 16.123C57.9996 15.8841 57.6655 15.769 57.2699 15.769C56.8216 15.769 56.4524 15.9106 56.1447 16.2026C55.6789 16.6539 55.4415 17.3442 55.4415 18.3087V24.1934V24.3084H55.3272H51.2396H51.1254V24.1934V18.5122C51.1254 17.884 51.0814 17.3707 50.9935 16.9725C50.9056 16.5743 50.7825 16.2911 50.6243 16.1318C50.3606 15.8487 49.9826 15.7071 49.4815 15.7071C49.0244 15.7071 48.6816 15.8398 48.4354 16.0876C47.9959 16.5123 47.7586 17.3176 47.7586 18.5211V24.2022V24.3173H47.6443H43.5567H43.4424V24.2022V12.7072V12.5922H43.5567H47.6443H47.7586V12.7072V13.7868C48.62 12.8488 49.7277 12.3798 51.0638 12.3798C51.9165 12.3798 52.6637 12.5568 53.3142 12.9107C53.9559 13.2559 54.4745 13.7603 54.8437 14.4239C55.2305 13.7957 55.7316 13.3001 56.3381 12.9638C57.0238 12.5745 57.8413 12.3798 58.7731 12.3798ZM58.7731 12.1143C57.7886 12.1143 56.9359 12.3178 56.2151 12.7249C55.6876 13.0169 55.2305 13.424 54.8525 13.9284C54.4745 13.3886 53.9999 12.9638 53.4373 12.663C52.7604 12.2913 51.9605 12.1055 51.0638 12.1055C49.8771 12.1055 48.8574 12.4594 48.0223 13.1585V12.6895V12.5745V12.309H47.7586H47.6443H43.5567H43.4424H43.1787V12.5745V12.6895V24.1757V24.2907V24.5562H43.4424H43.5567H47.6443H47.7586H48.0223V24.2907V24.1757V18.4945C48.0223 17.3884 48.2245 16.6362 48.62 16.2469C48.8222 16.0433 49.1035 15.946 49.4815 15.946C49.9035 15.946 50.2199 16.061 50.4309 16.2911C50.5188 16.3885 50.6419 16.5831 50.7386 17.0079C50.8177 17.3884 50.8616 17.8928 50.8616 18.4945V24.1757V24.2907V24.5562H51.1254H51.2396H55.3272H55.4415H55.7052V24.2907V24.1757V18.291C55.7052 17.4238 55.9162 16.7867 56.3293 16.3796C56.5843 16.1407 56.8919 16.0256 57.2699 16.0256C57.604 16.0256 57.8677 16.123 58.0875 16.3088C58.2281 16.4415 58.3424 16.6893 58.4127 17.0167C58.5006 17.3973 58.5534 17.8928 58.5534 18.4945V24.1757V24.2907V24.5562H58.8171H58.9313H63.0102H63.1244H63.3881V24.2907V24.1757V16.6982C63.3881 15.1938 62.9926 14.0346 62.2014 13.2647C61.4191 12.5125 60.2675 12.1143 58.7731 12.1143Z" fill="#ECEBF2"/>
<path d="M39.4608 19.407H41.5354C41.5881 19.0618 41.6233 18.7079 41.6233 18.3451C41.6233 14.7523 38.7312 11.8409 35.1622 11.8409C31.5933 11.8409 28.7012 14.7523 28.7012 18.3451C28.7012 21.9378 31.5933 24.8492 35.1622 24.8492C38.0367 24.8492 40.4629 22.9643 41.3068 20.3538H37.2456C36.7181 20.9025 35.9797 21.2476 35.1622 21.2476C33.9403 21.2476 32.8943 20.4777 32.4723 19.3981H37.8521H39.4608V19.407ZM35.1534 15.4337C36.2083 15.4337 37.1225 16 37.6324 16.8407H32.6833C33.1843 16 34.0986 15.4337 35.1534 15.4337Z" fill="#ECEBF2"/>
<path d="M14.4771 24.1936V24.3087H14.5913H18.6789H18.7932V24.1936V18.0258C18.7932 17.2294 19.013 16.6365 19.4437 16.2383C19.7777 15.9374 20.2349 15.7781 20.8502 15.7781C21.404 15.7781 21.8084 15.9374 22.0633 16.2294C22.2127 16.3975 22.3358 16.6542 22.4237 17.017C22.5028 17.3798 22.5468 17.8311 22.5468 18.3886V24.1936V24.3087H22.661H26.7486H26.8629V24.1936V16.8931C26.8629 16.1852 26.7926 15.5834 26.6519 15.0879C26.5289 14.5658 26.2212 14.0702 25.7553 13.6012C24.9114 12.7517 23.7599 12.3358 22.3094 12.3358C21.3776 12.3358 20.5689 12.5305 19.9008 12.9198C19.4964 13.1499 19.1272 13.4596 18.7932 13.8313V5.46001V5.34497H18.6789H14.5913H14.4771V5.46001V24.1936Z" fill="#ECEBF2"/>
<path d="M18.7937 5.34555V5.46059V13.8319C19.1278 13.4602 19.497 13.1505 19.9013 12.9204C20.5694 12.5311 21.3694 12.3364 22.3099 12.3364C23.7604 12.3364 24.9207 12.7523 25.7558 13.6018C26.2217 14.0708 26.5294 14.5752 26.6525 15.0885C26.7931 15.584 26.8634 16.1857 26.8634 16.8937V24.1942V24.3093H26.7492H22.6616H22.5473V24.1942V18.3892C22.5473 17.8405 22.5033 17.3804 22.4242 17.0176C22.3451 16.6548 22.222 16.3981 22.0638 16.23C21.8001 15.938 21.4045 15.7787 20.8507 15.7787C20.2442 15.7787 19.7783 15.938 19.4442 16.2388C19.0135 16.6371 18.7937 17.2299 18.7937 18.0264V24.1942V24.3093H18.6795H14.5919H14.4776V24.1942V5.46059V5.34555H14.5919H18.6795H18.7937ZM19.0575 5.08008H18.7937H18.6795H14.5919H14.4776H14.2139V5.34555V5.46059V24.1942V24.3093V24.5747H14.4776H14.5919H18.6795H18.7937H19.0575V24.3093V24.1942V18.0264C19.0575 17.3096 19.2421 16.7875 19.6288 16.4335C19.9189 16.1769 20.3145 16.0442 20.8507 16.0442C21.3166 16.0442 21.6507 16.1592 21.8704 16.407C21.9935 16.5486 22.099 16.7698 22.1605 17.0795C22.2396 17.4246 22.2748 17.8671 22.2748 18.3892V24.1942V24.3093V24.5747H22.5385H22.6528H26.7404H26.8547H27.1184V24.3093V24.1942V16.8937C27.1184 16.1592 27.048 15.5309 26.8986 15.0265C26.758 14.469 26.4415 13.9204 25.9317 13.416C25.0438 12.5222 23.8219 12.0709 22.2924 12.0709C21.3078 12.0709 20.4551 12.2744 19.7519 12.6903C19.5058 12.8319 19.2684 13.0001 19.0399 13.1947V5.46059V5.34555V5.08008H19.0575Z" fill="#ECEBF2"/>
<path d="M13.0536 16.1838H13.1678V16.0688V12.7061V12.5911H13.0536H10.8471V8.92754V8.8125H10.7329H6.64526H6.53098V8.92754V12.5911H5.34426H5.22998V12.7061V16.0688V16.1838H5.34426H6.53098V24.1923V24.3073H6.64526H10.7329H10.8471V24.1923V16.1838H13.0536Z" fill="#ECEBF2"/>
<path d="M10.8477 8.81308V8.92812V12.5917H13.0541H13.1684V12.7067V16.0694V16.1844H13.0541H10.8477V24.1929V24.3079H10.7334H6.64579H6.53151V24.1929V16.1844H5.34479H5.23051V16.0694V12.7067V12.5917H5.34479H6.53151V8.92812V8.81308H6.64579H10.7334H10.8477ZM11.1114 8.54761H10.8477H10.7334H6.64579H6.53151H6.2678V8.81308V8.92812V12.3262H5.34479H5.23051H4.9668V12.5917V12.7067V16.0694V16.1844V16.4499H5.23051H5.34479H6.2678V24.1929V24.3079V24.5734H6.53151H6.64579H10.7334H10.8477H11.1114V24.3079V24.1929V16.4499H13.0541H13.1684H13.4321V16.1844V16.0694V12.7067V12.5917V12.3262H13.1684H13.0541H11.1114V8.92812V8.81308V8.54761Z" fill="#ECEBF2"/>
<defs>
<linearGradient id="paint0_linear_644_5973" x1="130.9" y1="17.2516" x2="145.033" y2="17.2516" gradientUnits="userSpaceOnUse">
<stop stop-color="#F60716"/>
<stop offset="1" stop-color="#F65D07"/>
</linearGradient>
</defs>
</svg>
