<svg width="1440" height="658" viewBox="0 0 1440 658" fill="none" xmlns="http://www.w3.org/2000/svg">
<mask id="mask0_378_2468" style="mask-type:alpha" maskUnits="userSpaceOnUse" x="0" y="0" width="1440" height="658">
<rect width="1440" height="658" fill="url(#paint0_linear_378_2468)"/>
</mask>
<g mask="url(#mask0_378_2468)">
<path d="M2.09961 0.666016L-8751 727.373" stroke="white" stroke-opacity="0.2" stroke-miterlimit="10"/>
<path d="M30.2402 0.666016L-8379.6 727.373" stroke="white" stroke-opacity="0.2" stroke-miterlimit="10"/>
<path d="M58.3809 0.666016L-8008.2 727.373" stroke="white" stroke-opacity="0.2" stroke-miterlimit="10"/>
<path d="M86.5195 0.666016L-7636.8 727.373" stroke="white" stroke-opacity="0.2" stroke-miterlimit="10"/>
<path d="M114.66 0.666016L-7265.4 727.373" stroke="white" stroke-opacity="0.2" stroke-miterlimit="10"/>
<path d="M142.8 0.666016L-6894 727.373" stroke="white" stroke-opacity="0.2" stroke-miterlimit="10"/>
<path d="M170.94 0.666016L-6522.61 727.373" stroke="white" stroke-opacity="0.2" stroke-miterlimit="10"/>
<path d="M199.079 0.666016L-6151.21 727.373" stroke="white" stroke-opacity="0.2" stroke-miterlimit="10"/>
<path d="M227.219 0.666016L-5779.81 727.373" stroke="white" stroke-opacity="0.2" stroke-miterlimit="10"/>
<path d="M255.36 0.666016L-5408.41 727.373" stroke="white" stroke-opacity="0.2" stroke-miterlimit="10"/>
<path d="M283.5 0.666016L-5037.01 727.373" stroke="white" stroke-opacity="0.2" stroke-miterlimit="10"/>
<path d="M311.641 0.666016L-4665.61 727.373" stroke="white" stroke-opacity="0.2" stroke-miterlimit="10"/>
<path d="M339.779 0.666016L-4294.21 727.373" stroke="white" stroke-opacity="0.2" stroke-miterlimit="10"/>
<path d="M367.92 0.666016L-3922.82 727.373" stroke="white" stroke-opacity="0.2" stroke-miterlimit="10"/>
<path d="M396.06 0.666016L-3551.42 727.373" stroke="white" stroke-opacity="0.2" stroke-miterlimit="10"/>
<path d="M424.2 0.666016L-3180.02 727.373" stroke="white" stroke-opacity="0.2" stroke-miterlimit="10"/>
<path d="M452.339 0.666016L-2808.62 727.373" stroke="white" stroke-opacity="0.2" stroke-miterlimit="10"/>
<path d="M480.481 0.666016L-2437.22 727.373" stroke="white" stroke-opacity="0.2" stroke-miterlimit="10"/>
<path d="M508.62 0.666016L-2065.82 727.373" stroke="white" stroke-opacity="0.2" stroke-miterlimit="10"/>
<path d="M536.75 0.666016L-1694.43 727.373" stroke="white" stroke-opacity="0.2" stroke-miterlimit="10"/>
<path d="M564.889 0.666016L-1323.03 727.373" stroke="white" stroke-opacity="0.2" stroke-miterlimit="10"/>
<path d="M593.03 0.666016L-951.63 727.373" stroke="white" stroke-opacity="0.2" stroke-miterlimit="10"/>
<path d="M621.17 0.666016L-580.23 727.373" stroke="white" stroke-opacity="0.2" stroke-miterlimit="10"/>
<path d="M649.31 0.666016L-208.83 727.373" stroke="white" stroke-opacity="0.2" stroke-miterlimit="10"/>
<path d="M677.45 0.666016L162.57 727.373" stroke="white" stroke-opacity="0.2" stroke-miterlimit="10"/>
<path d="M705.59 0.666016L533.96 727.373" stroke="white" stroke-opacity="0.2" stroke-miterlimit="10"/>
<path d="M733.729 0.666016L905.359 727.373" stroke="white" stroke-opacity="0.2" stroke-miterlimit="10"/>
<path d="M761.87 0.666016L1276.76 727.373" stroke="white" stroke-opacity="0.2" stroke-miterlimit="10"/>
<path d="M790.01 0.666016L1648.16 727.373" stroke="white" stroke-opacity="0.2" stroke-miterlimit="10"/>
<path d="M818.15 0.666016L2019.56 727.373" stroke="white" stroke-opacity="0.2" stroke-miterlimit="10"/>
<path d="M846.29 0.666016L2390.96 727.373" stroke="white" stroke-opacity="0.2" stroke-miterlimit="10"/>
<path d="M874.43 0.666016L2762.36 727.373" stroke="white" stroke-opacity="0.2" stroke-miterlimit="10"/>
<path d="M902.57 0.666016L3133.75 727.373" stroke="white" stroke-opacity="0.2" stroke-miterlimit="10"/>
<path d="M930.71 0.666016L3505.15 727.373" stroke="white" stroke-opacity="0.2" stroke-miterlimit="10"/>
<path d="M958.85 0.666016L3876.55 727.373" stroke="white" stroke-opacity="0.2" stroke-miterlimit="10"/>
<path d="M986.99 0.666016L4247.95 727.373" stroke="white" stroke-opacity="0.2" stroke-miterlimit="10"/>
<path d="M1015.13 0.666016L4619.35 727.373" stroke="white" stroke-opacity="0.2" stroke-miterlimit="10"/>
<path d="M1043.27 0.666016L4990.75 727.373" stroke="white" stroke-opacity="0.2" stroke-miterlimit="10"/>
<path d="M1071.41 0.666016L5362.14 727.373" stroke="white" stroke-opacity="0.2" stroke-miterlimit="10"/>
<path d="M1099.55 0.666016L5733.54 727.373" stroke="white" stroke-opacity="0.2" stroke-miterlimit="10"/>
<path d="M1127.69 0.666016L6104.94 727.373" stroke="white" stroke-opacity="0.2" stroke-miterlimit="10"/>
<path d="M1155.83 0.666016L6476.34 727.373" stroke="white" stroke-opacity="0.2" stroke-miterlimit="10"/>
<path d="M1183.97 0.666016L6847.74 727.373" stroke="white" stroke-opacity="0.2" stroke-miterlimit="10"/>
<path d="M1212.11 0.666016L7219.14 727.373" stroke="white" stroke-opacity="0.2" stroke-miterlimit="10"/>
<path d="M1240.25 0.666016L7590.54 727.373" stroke="white" stroke-opacity="0.2" stroke-miterlimit="10"/>
<path d="M1268.39 0.666016L7961.93 727.373" stroke="white" stroke-opacity="0.2" stroke-miterlimit="10"/>
<path d="M1296.53 0.666016L8333.33 727.373" stroke="white" stroke-opacity="0.2" stroke-miterlimit="10"/>
<path d="M1324.67 0.666016L8704.73 727.373" stroke="white" stroke-opacity="0.2" stroke-miterlimit="10"/>
<path d="M1352.81 0.666016L9076.13 727.373" stroke="white" stroke-opacity="0.2" stroke-miterlimit="10"/>
<path d="M1380.95 0.666016L9447.53 727.373" stroke="white" stroke-opacity="0.2" stroke-miterlimit="10"/>
<path d="M1409.09 0.666016L9818.93 727.373" stroke="white" stroke-opacity="0.2" stroke-miterlimit="10"/>
<path d="M1437.23 0.666016L10190.3 727.373" stroke="white" stroke-opacity="0.2" stroke-miterlimit="10"/>
<path d="M1437.23 0.666016H2.09961" stroke="white" stroke-opacity="0.2" stroke-miterlimit="10"/>
<path d="M1450.47 1.7666H-11.1504" stroke="white" stroke-opacity="0.2" stroke-miterlimit="10"/>
<path d="M1464.22 2.90625H-24.8896" stroke="white" stroke-opacity="0.2" stroke-miterlimit="10"/>
<path d="M1478.48 4.09277H-39.1602" stroke="white" stroke-opacity="0.2" stroke-miterlimit="10"/>
<path d="M1493.31 5.32617H-53.9805" stroke="white" stroke-opacity="0.2" stroke-miterlimit="10"/>
<path d="M1508.73 6.60645H-69.4004" stroke="white" stroke-opacity="0.2" stroke-miterlimit="10"/>
<path d="M1524.77 7.93262H-85.4404" stroke="white" stroke-opacity="0.2" stroke-miterlimit="10"/>
<path d="M1541.48 9.31934H-102.15" stroke="white" stroke-opacity="0.2" stroke-miterlimit="10"/>
<path d="M1558.9 10.7666H-119.57" stroke="white" stroke-opacity="0.2" stroke-miterlimit="10"/>
<path d="M1577.07 12.2793H-137.74" stroke="white" stroke-opacity="0.2" stroke-miterlimit="10"/>
<path d="M1596.05 13.8525H-156.72" stroke="white" stroke-opacity="0.2" stroke-miterlimit="10"/>
<path d="M1615.89 15.499H-176.561" stroke="white" stroke-opacity="0.2" stroke-miterlimit="10"/>
<path d="M1636.64 17.2256H-197.311" stroke="white" stroke-opacity="0.2" stroke-miterlimit="10"/>
<path d="M1658.38 19.0264H-219.05" stroke="white" stroke-opacity="0.2" stroke-miterlimit="10"/>
<path d="M1681.18 20.9189H-241.85" stroke="white" stroke-opacity="0.2" stroke-miterlimit="10"/>
<path d="M1705.11 22.9062H-265.78" stroke="white" stroke-opacity="0.2" stroke-miterlimit="10"/>
<path d="M1730.26 24.9932H-290.93" stroke="white" stroke-opacity="0.2" stroke-miterlimit="10"/>
<path d="M1756.73 27.1924H-317.4" stroke="white" stroke-opacity="0.2" stroke-miterlimit="10"/>
<path d="M1784.62 29.5059H-345.29" stroke="white" stroke-opacity="0.2" stroke-miterlimit="10"/>
<path d="M1814.05 31.9521H-374.72" stroke="white" stroke-opacity="0.2" stroke-miterlimit="10"/>
<path d="M1845.16 34.5322H-405.83" stroke="white" stroke-opacity="0.2" stroke-miterlimit="10"/>
<path d="M1878.09 37.2666H-438.76" stroke="white" stroke-opacity="0.2" stroke-miterlimit="10"/>
<path d="M1913 40.166H-473.67" stroke="white" stroke-opacity="0.2" stroke-miterlimit="10"/>
<path d="M1950.08 43.2461H-510.75" stroke="white" stroke-opacity="0.2" stroke-miterlimit="10"/>
<path d="M1989.54 46.5195H-550.21" stroke="white" stroke-opacity="0.2" stroke-miterlimit="10"/>
<path d="M2031.62 50.0127H-592.29" stroke="white" stroke-opacity="0.2" stroke-miterlimit="10"/>
<path d="M2076.58 53.7461H-637.25" stroke="white" stroke-opacity="0.2" stroke-miterlimit="10"/>
<path d="M2124.73 57.7461H-685.4" stroke="white" stroke-opacity="0.2" stroke-miterlimit="10"/>
<path d="M2176.42 62.0391H-737.09" stroke="white" stroke-opacity="0.2" stroke-miterlimit="10"/>
<path d="M2232.06 66.6592H-792.73" stroke="white" stroke-opacity="0.2" stroke-miterlimit="10"/>
<path d="M2292.12 71.6455H-852.79" stroke="white" stroke-opacity="0.2" stroke-miterlimit="10"/>
<path d="M2357.15 77.0391H-917.82" stroke="white" stroke-opacity="0.2" stroke-miterlimit="10"/>
<path d="M2427.79 82.9062H-988.461" stroke="white" stroke-opacity="0.2" stroke-miterlimit="10"/>
<path d="M2504.8 89.2998H-1065.47" stroke="white" stroke-opacity="0.2" stroke-miterlimit="10"/>
<path d="M2589.08 96.2998H-1149.75" stroke="white" stroke-opacity="0.2" stroke-miterlimit="10"/>
<path d="M2681.71 103.986H-1242.38" stroke="white" stroke-opacity="0.2" stroke-miterlimit="10"/>
<path d="M2784.01 112.479H-1344.68" stroke="white" stroke-opacity="0.2" stroke-miterlimit="10"/>
<path d="M2897.55 121.906H-1458.22" stroke="white" stroke-opacity="0.2" stroke-miterlimit="10"/>
<path d="M3024.31 132.433H-1584.98" stroke="white" stroke-opacity="0.2" stroke-miterlimit="10"/>
<path d="M3166.74 144.259H-1727.41" stroke="white" stroke-opacity="0.2" stroke-miterlimit="10"/>
<path d="M3327.94 157.64H-1888.61" stroke="white" stroke-opacity="0.2" stroke-miterlimit="10"/>
<path d="M3511.87 172.913H-2072.54" stroke="white" stroke-opacity="0.2" stroke-miterlimit="10"/>
<path d="M3723.7 190.499H-2284.37" stroke="white" stroke-opacity="0.2" stroke-miterlimit="10"/>
<path d="M3970.32 210.973H-2530.99" stroke="white" stroke-opacity="0.2" stroke-miterlimit="10"/>
<path d="M4261.05 235.114L-2821.72 235.106" stroke="white" stroke-opacity="0.2" stroke-miterlimit="10"/>
<path d="M4608.9 263.986H-3169.57" stroke="white" stroke-opacity="0.2" stroke-miterlimit="10"/>
<path d="M5032.52 299.159H-3593.19" stroke="white" stroke-opacity="0.2" stroke-miterlimit="10"/>
<path d="M5559.71 342.926H-4120.37" stroke="white" stroke-opacity="0.2" stroke-miterlimit="10"/>
<path d="M6233.73 398.886H-4794.39" stroke="white" stroke-opacity="0.2" stroke-miterlimit="10"/>
<path d="M7125.84 472.952H-5686.5" stroke="white" stroke-opacity="0.2" stroke-miterlimit="10"/>
<path d="M8362.34 575.614L-6922.99 575.606" stroke="white" stroke-opacity="0.2" stroke-miterlimit="10"/>
</g>
<defs>
<linearGradient id="paint0_linear_378_2468" x1="720" y1="0" x2="720" y2="658" gradientUnits="userSpaceOnUse">
<stop stop-color="#D9D9D9" stop-opacity="0"/>
<stop offset="0.509615" stop-color="#A6A6A6"/>
<stop offset="1" stop-color="#737373" stop-opacity="0"/>
</linearGradient>
</defs>
</svg>
